PathFileType	4	(X/Y/Z)	C:\Users\WrightLab\Desktop\Jo\P5V116.trc
DataRate	CameraRate	NumFrames	NumMarkers	Units	OrigDataRate	OrigDataStartFrame	OrigNumFrames
100.00	100.00	       22	19	mm	100.00	124	       492
Frame#	Time	Headset_Front			Headset_Back			Headset_Left			Headset_Right			Left_Shoulder			Right_Shoulder			Sternum			C7			Left Elbow			Right Elbow			Left Wrist			Right Wrist			Left ASIS			Right ASIS			S2			Left Knee			Right Knee			Left Ankle			Right Ankle			
		X1	Y1	Z1	X2	Y2	Z2	X3	Y3	Z3	X4	Y4	Z4	X5	Y5	Z5	X6	Y6	Z6	X7	Y7	Z7	X8	Y8	Z8	X9	Y9	Z9	X10	Y10	Z10	X11	Y11	Z11	X12	Y12	Z12	X13	Y13	Z13	X14	Y14	Z14	X15	Y15	Z15	X16	Y16	Z16	X17	Y17	Z17	X18	Y18	Z18	X19	Y19	Z19	

124	1.230	-740.27307	981.63776	-174.49176										-331.24823	1467.54395	-331.21384	-743.33295	1486.02209	-276.38016	-556.96002	1332.22485	-201.65561	-556.70001	1514.13599	-423.56580	-293.02728	1186.69019	-389.09851	-854.37054	1221.75476	-336.81271	-341.13159	1135.29431	-183.68919	-760.85175	1089.13696	-157.73476	-457.11707	926.74426	-184.98758				-563.57660	959.22955	-453.44550	-448.34360	484.86340	-199.29106	-791.71381	584.92719	-68.55085	-606.94196	84.10799	-367.18683	-806.99475	226.58517	-375.58304	
125	1.240	-737.43658	981.17957	-163.54541										-331.38919	1468.04993	-327.00058	-742.44366	1485.00781	-267.05792	-554.87512	1333.38708	-194.56897	-557.74725	1514.54919	-415.88919	-293.22449	1187.64722	-383.71518	-854.90912	1221.31140	-325.35281	-340.93796	1136.71594	-177.98904	-759.07080	1089.34131	-148.02243	-454.96179	927.47864	-179.59674				-565.71765	959.45190	-445.98224	-442.49792	482.82101	-199.61729	-783.62634	591.26599	-52.10676	-606.87134	84.33015	-367.05576	-813.80737	220.65881	-351.69965	
126	1.250	-734.09961	980.72510	-153.17050										-331.08569	1468.47217	-322.16315	-741.89850	1485.03503	-257.73251	-552.55695	1332.54651	-187.96138	-558.73138	1514.59143	-408.56415	-293.65457	1187.30664	-378.24356	-856.43402	1222.44861	-315.20590	-339.78021	1137.52234	-173.10915	-756.47260	1089.04089	-137.49361	-452.10413	927.66656	-174.39792				-567.76941	959.77417	-438.92496	-438.21558	481.67313	-201.22766	-775.84192	595.37408	-37.85856	-607.05212	84.86028	-366.41226	-820.11127	213.56053	-324.67847	
127	1.260	-731.98212	980.86804	-143.73093										-330.72327	1469.34509	-318.30011	-739.67560	1484.12769	-247.30560	-550.38159	1332.01404	-181.53058	-560.00677	1514.74365	-401.36130	-293.71210	1187.72253	-373.45889	-856.67841	1222.36243	-303.37592	-338.83258	1138.53247	-166.98453	-754.48627	1088.83899	-127.35732	-449.77631	927.00360	-168.24339				-570.14453	960.27466	-432.21973	-435.09311	481.39810	-203.37210	-768.32990	597.65558	-25.58762	-606.96350	85.08791	-366.28513	-825.09320	205.39409	-299.07458	
128	1.270	-730.35559	981.30719	-134.50967										-330.22290	1468.60791	-314.45892	-738.72095	1484.32666	-237.62131	-547.82642	1332.86694	-175.17065	-561.02509	1515.03503	-394.73694	-293.22372	1188.33606	-369.18152	-854.36737	1220.71960	-291.43765	-337.51132	1139.02502	-161.00867	-752.48645	1087.36157	-117.59846	-447.54382	926.30957	-163.06386				-572.65668	960.93463	-425.74609	-433.54092	481.11359	-206.09535	-760.11688	600.54089	-13.45695	-606.90765	85.32852	-366.13419	-829.81696	197.99611	-271.88937	
129	1.280				-565.00531	1642.63892	-83.86085							-330.42838	1470.57922	-309.23132	-737.19421	1483.61243	-227.75693	-545.46759	1332.53235	-169.38284	-561.60461	1514.81482	-386.66940	-292.78839	1188.65613	-366.08041	-856.87018	1222.43103	-280.97607	-335.66635	1139.95520	-155.71771	-749.92816	1087.06836	-107.95113	-444.80859	926.73303	-158.37164				-575.47052	961.94275	-419.44232	-432.43887	480.92035	-207.75525	-751.12964	600.48633	-2.26070	-606.89618	86.33659	-366.51453	-834.63538	190.80798	-243.86168	
130	1.290	-723.42743	980.21942	-115.36726	-562.91089	1642.62646	-76.47328							-330.03418	1470.55286	-305.31543	-737.10852	1484.24780	-218.64467	-543.01770	1331.97314	-161.04771	-562.62842	1515.33032	-379.69077	-292.99078	1188.85291	-357.93338	-853.47058	1221.20093	-268.14444	-335.17065	1139.95264	-149.60075	-747.77502	1086.59363	-97.13818	-442.02505	926.01105	-153.07091				-577.92419	961.74957	-413.10394	-432.56937	480.47842	-208.63184	-742.74194	600.28467	8.22894	-607.11224	87.21919	-365.72397	-836.69720	182.76199	-216.32014	
131	1.300				-561.60938	1641.66052	-68.38210							-329.83496	1471.61841	-300.67743	-734.62183	1482.59888	-208.56569	-540.20465	1332.76587	-151.04939	-562.67084	1515.30835	-372.29684	-292.97437	1189.28259	-352.01810	-853.49011	1220.68127	-256.45096	-334.94550	1140.14453	-144.18700	-745.76428	1085.57593	-88.03397	-440.03140	925.45953	-147.47932				-580.39532	961.74915	-406.54233	-432.80786	480.10745	-210.15585	-734.15210	599.24866	16.65852	-607.06207	87.89010	-365.26273	-837.34760	175.88116	-190.32668	
132	1.310	-716.64471	978.27039	-96.07289	-559.71289	1641.07324	-61.28423							-329.32971	1471.64685	-296.47464	-733.37390	1483.17188	-198.95010	-538.41650	1332.64844	-145.09575	-563.65387	1515.43481	-364.72534	-292.17596	1189.08984	-346.55719	-851.93396	1220.72815	-244.90302	-332.97415	1140.64917	-138.59271	-743.03967	1084.45178	-77.69753	-436.57584	925.35211	-142.72971				-582.78204	961.69879	-399.29703	-433.60657	479.41904	-210.60451	-725.75623	596.41888	24.71634	-606.99286	88.55336	-365.53528	-837.05042	167.77594	-161.55331	
133	1.320	-713.30280	978.72296	-88.39938	-558.61145	1640.31824	-53.98123							-329.12158	1471.75183	-290.65103	-731.78448	1482.55920	-189.18469	-536.16974	1331.87952	-138.47699	-563.89355	1515.32642	-356.28989	-291.23630	1190.10181	-340.87827	-850.59528	1220.57178	-233.95915	-331.93100	1140.88049	-133.02837	-740.93622	1083.71582	-67.43867	-433.95255	924.46088	-138.06152				-585.33447	962.15771	-392.40527	-434.50458	478.69699	-210.22668	-718.06958	593.25287	31.17523	-606.84918	88.70870	-364.57983	-835.52075	159.91052	-132.01068	
134	1.330	-709.16370	977.23688	-78.98215	-557.34143	1639.32861	-45.95731							-328.57339	1471.69849	-285.73230	-729.90002	1482.93457	-179.78691	-533.27124	1331.37781	-132.12665	-564.76825	1515.62646	-349.38907	-289.78525	1189.32190	-333.60529	-850.12225	1220.67456	-222.17746	-331.28363	1141.09753	-126.09106	-738.27765	1083.26331	-58.06696	-431.00751	924.42804	-133.58972				-587.36865	962.00177	-385.10886	-436.95865	477.40302	-210.30307	-711.32007	589.02649	37.78901	-606.80304	88.93687	-364.43356	-832.18378	153.55690	-104.37309	
135	1.340				-554.44965	1638.71460	-37.89186							-327.99753	1472.01990	-279.96988	-728.13672	1482.14197	-169.65512	-531.27142	1331.03430	-124.30857	-564.56415	1515.39392	-341.02289	-289.06329	1189.56848	-328.77402	-848.79095	1220.91980	-211.44008	-328.69894	1140.98669	-120.53562	-735.51404	1082.02405	-47.87559	-429.38281	923.96106	-128.06479				-589.55878	962.55432	-378.08240	-437.90720	476.66336	-209.12277	-704.32428	584.37848	43.36532	-606.66840	89.57218	-364.61554	-827.40039	147.30670	-75.70556	
136	1.350				-553.50568	1637.36353	-30.27225							-327.25873	1471.47461	-274.82751	-726.12335	1482.43323	-160.42709	-528.27448	1330.00171	-116.92786	-564.80139	1515.50623	-333.26022	-287.44913	1190.23010	-323.74744	-848.19073	1220.83191	-199.82623	-327.92334	1140.33167	-114.25761	-733.93317	1081.48608	-38.78586	-426.22708	923.15851	-122.78205	-703.11469	975.92285	-62.06675	-591.52576	962.71582	-370.61093	-439.86142	476.14194	-207.60744	-698.13800	579.65509	48.85379	-606.60913	89.82803	-364.45496	-820.44934	141.39310	-47.66164	
137	1.360				-550.71381	1636.56128	-21.93644							-326.85684	1471.38733	-269.21524	-723.37213	1481.05225	-149.89688	-525.01117	1329.50134	-109.15406	-564.47418	1515.12500	-325.66074	-285.87909	1189.45203	-317.74884	-846.41675	1221.30786	-189.40997	-325.03806	1139.99243	-108.42689	-731.18646	1081.43860	-28.90478	-424.57977	922.61328	-117.60446	-699.22375	975.28833	-53.23108	-593.40436	962.55237	-363.05020	-441.84637	475.80341	-205.76651	-692.52405	573.60791	52.16106	-606.55707	90.09663	-364.28204	-812.43335	137.01736	-20.74914	
138	1.370				-549.51093	1635.55298	-14.18958							-325.64468	1470.74182	-263.47617	-722.06268	1481.72876	-140.40295	-523.11877	1328.26074	-103.93314	-564.30548	1514.46582	-316.90582	-284.77496	1188.94556	-310.43536	-844.89172	1220.81641	-177.99533	-322.90952	1140.14880	-102.19199	-728.63605	1081.16443	-19.30103	-421.47729	921.71448	-112.29469	-694.75867	974.42792	-44.75167	-594.58112	961.74426	-355.13013	-444.28375	474.97110	-203.55621	-687.46460	567.68427	55.07702	-606.59113	90.64449	-363.54086	-802.82007	132.99117	5.62551	
139	1.380				-546.92615	1634.55591	-6.20269							-324.99503	1470.45044	-258.09677	-718.80188	1480.37903	-130.29985	-520.26965	1327.48792	-96.01428	-563.94934	1514.31775	-309.02859	-283.10660	1188.73474	-305.09677	-845.01593	1221.29663	-168.22128	-319.93301	1139.56006	-95.92188	-726.85889	1080.67297	-9.39988	-419.59586	920.39178	-107.03056	-687.78778	972.72766	-36.85484	-596.30731	961.74231	-347.36206	-446.24945	474.37509	-200.84175	-684.25494	561.44110	60.05992	-606.99341	92.19510	-362.82211	-792.01361	128.88321	32.59103	
140	1.390				-545.72192	1633.49512	1.81200							-323.97171	1469.79358	-251.64067	-717.16046	1480.26611	-120.97546	-517.12811	1327.07544	-87.37174	-563.40948	1513.72412	-300.07452	-281.69980	1189.05811	-299.04517	-843.59875	1221.32788	-156.72955	-317.76343	1138.93933	-90.43355	-724.22864	1080.07471	0.37640	-417.04547	919.85028	-101.95972	-682.91119	970.95496	-27.68097	-597.87964	961.76129	-339.61774	-447.79840	473.78488	-198.44031	-681.42114	556.10382	64.08895	-606.84607	92.49886	-362.66519	-780.18329	127.10068	55.73130	
141	1.400				-542.76892	1631.98279	10.03638							-322.97009	1468.96655	-245.24562	-714.02271	1479.18311	-110.73452	-514.42590	1325.68945	-80.00362	-562.77533	1513.12500	-292.14905	-280.16663	1188.29053	-292.23486	-842.70770	1220.14185	-145.93036	-315.92441	1138.89465	-84.05840	-721.79376	1079.93958	9.35356	-413.68091	919.06201	-96.43950	-680.59558	970.63513	-19.24209	-599.19159	961.46948	-331.04779	-450.53256	473.04849	-194.55038	-679.99023	550.49548	66.92648	-606.47559	92.62945	-361.84219	-766.97369	125.06449	78.65892	
142	1.410				-541.03534	1631.30029	18.74151							-322.12778	1468.24365	-238.80516	-712.15692	1478.97717	-101.67062	-511.00854	1324.91956	-72.09134	-562.29376	1512.39612	-284.06979	-278.42953	1187.97144	-288.55264	-841.64453	1221.09485	-135.96809	-313.39063	1137.54773	-77.72379	-719.63348	1079.69556	18.01647	-412.36029	917.46497	-91.72478	-676.65570	969.08374	-9.89443	-600.32239	961.56244	-323.44342	-452.00330	473.13727	-190.94101	-678.88947	546.44427	72.21597	-605.91821	93.31030	-362.03055	-753.21387	123.22947	101.21024	
143	1.420				-538.19513	1630.00720	27.04213							-320.91141	1467.54138	-233.17853	-709.53992	1477.46692	-91.06377	-509.15225	1324.47913	-65.44954	-561.32593	1512.06873	-275.70532	-276.33762	1187.55786	-282.85452	-839.95630	1220.37793	-125.22478	-310.77188	1137.21851	-71.60537	-716.86292	1079.02759	28.69976	-409.81311	916.45148	-86.47636	-672.45697	968.17346	-1.16204	-601.68146	961.94745	-315.84424	-455.04446	471.92456	-187.57951	-677.17389	543.35913	78.87119	-605.53204	93.73785	-361.20795	-738.77612	122.47551	120.83858	
144	1.430				-536.34076	1629.09558	35.60019							-319.80554	1466.64685	-226.08716	-707.47870	1477.19177	-81.63749	-504.59946	1323.57788	-55.64563	-560.31171	1511.38574	-266.81848	-274.45645	1187.53955	-276.54535	-838.55933	1219.98962	-114.91993	-307.48227	1136.85754	-64.91309	-714.29193	1078.57654	38.08042	-406.84225	915.74744	-81.29677	-669.29279	967.56567	6.31924	-601.91431	961.36786	-307.81610	-457.28598	471.98456	-182.62263	-672.75787	540.70782	85.65167	-605.40515	94.78870	-360.24747	-724.35944	121.87376	138.87010	
145	1.440				-534.13904	1628.22119	43.79327				-411.93289	1548.57495	82.87827	-318.50650	1466.08765	-219.17865	-704.58368	1476.27039	-72.38379	-501.40616	1323.06335	-47.57831	-559.27075	1510.51697	-258.02554	-274.25494	1186.97107	-267.55045	-837.31042	1220.13025	-104.77014	-304.56638	1135.74353	-58.97078	-711.34412	1077.90039	47.16437	-405.18878	914.68182	-74.97614	-665.57538	966.18860	15.81117	-602.28882	961.54651	-299.61786	-459.35208	471.70844	-177.15331	-666.50348	539.29425	94.13628	-604.76727	95.74802	-360.23920	-709.44904	120.73007	156.90515	
